<svg xmlns="http://www.w3.org/2000/svg" xmlns:xlink="http://www.w3.org/1999/xlink" id="Layer_1" x="0px" y="0px" viewBox="0 0 2457.8 500.1" style="enable-background:new 0 0 2457.8 500.1;" xml:space="preserve"><style type="text/css">	.st0{fill:#D42D27;}	.st1{fill:#FEC830;}	.st2{fill:#FFFFFF;}	.st3{fill:#D32D27;}	.st4{fill:#ED1E32;}</style><g>	<g>		<g>			<g>				<circle class="st0" cx="251.7" cy="249.3" r="241.4"></circle>			</g>		</g>		<path class="st1" d="M269.4,349.8c-36.1,3.5-69.3-6.2-101.4-21.6c-32.2-15.5-59.5-37-80.7-67.4c-7.9,21.7-17.5,47.5-30.5,65.6   c-7.6-4.2-14.6-24.9-9.1-31.9c12.9-25.6,20.6-52.9,26.4-80.8c4.2-20.3,8.1-40.7,12.5-60.9c1.1-5.1,3-10.1,5.4-14.7   c3.5-6.7,15.5-15.6,19.2-8.9c3.3,6.1,0.1,22-1.4,28.7c-3.8,17-7.6,33.9-11.5,50.9c-0.2,0.9-0.4,1.9-0.7,3.9c4-2.4,7.4-4,10.1-6.4   c9.5-8.1,19-16.4,28.2-24.9c12.4-11.5,24.5-23.3,37-34.7c3.8-3.5,8.6-6,13.2-8.4c1.7-0.9,4.9-0.7,6.2,0.4c1,0.8,1.1,4.4,0.1,5.9   c-5.3,8.6-10.4,17.4-16.6,25.3c-13.4,17-30.4,30.4-46.8,44.3c-9.7,8.1-19.4,16.2-29,24.2c0,0.6-0.1,0.9,0.1,1.1   c18.9,27.6,40.8,52.2,70.9,67.9c17.1,8.9,35.1,16.1,52.8,23.7c13.9,6,28,11.4,42,17.1C267.1,348.7,268.2,349.3,269.4,349.8z"></path>		<path class="st2" d="M270.9,209.3c11.1-10,30.4-10,42.3,2.9c10.7-9.6,22.9-12.6,36.6-7.7c10.2,3.7,16.3,11.4,16.8,22.2   c0.7,16.1,0.7,32.3,0.6,48.4c-0.1,8-4.8,12.2-11.9,12c-5-0.1-9-3.3-10.1-8.3c-0.5-2.1-0.6-4.3-0.6-6.5c-0.1-13.1,0-26.1-0.2-39.2   c-0.1-6.2-3.6-10.8-8.7-12.2c-8.8-2.4-16.4,3.3-16.6,12.8c-0.2,13.1,0,26.1-0.1,39.2c0,2-0.2,4.1-0.7,6.1c-1.5,5.7-6,8.6-12.2,8.1   c-4.8-0.4-8.9-4.4-9.4-9.6c-0.3-3.2-0.3-6.4-0.3-9.6c-0.1-11.8,0.1-23.6-0.4-35.3c-0.3-7.8-5.6-12.4-12.5-12.3   c-7.1,0.1-11.7,4.2-12.1,12.1c-0.5,9.2-0.3,18.4-0.4,27.6c-0.1,5.3,0.1,10.5-0.2,15.7c-0.4,7.1-4.6,11.3-11,11.3   c-6.5,0-10.9-4.3-11.5-11.4c0-0.5,0-1,0-1.5c0-19.6-0.1-39.2,0-58.8c0-9.5,7.1-15.2,15.3-12.1   C266.3,204.3,268.3,207.1,270.9,209.3z"></path>		<path class="st2" d="M400.8,251.9c0.7,7.6,6.3,13.3,14.3,15c5.9,1.3,11.4,0.5,16.8-2.1c3.6-1.7,7.2-3.4,10.8-5.1   c4.5-2.1,7.3-1.5,10.3,1.9c2.8,3.3,3.4,8,1,11.3c-1.4,1.9-3.1,3.8-5.1,5.1c-13,8.5-27.1,11.3-42.1,7.5   c-17-4.4-28.7-19.9-29.3-37.5c-0.6-15.5,4.3-28.6,16.6-38.2c18-14.1,43.8-8.8,57.1,11.5c4.1,6.3,6.4,13.1,6.4,20.6   c0,6.5-3.2,9.7-9.7,9.7c-14.9,0.1-29.7,0-44.6,0.1C402.3,251.8,401.6,251.9,400.8,251.9z M400,236.7c11.5,0,22.9,0,34.2,0   c-0.1-8.6-6.6-14.9-15.9-15.7C409,220.3,402,226.2,400,236.7z"></path>		<path class="st2" d="M222.4,210.6c-7.2-5.7-15.6-8.2-23.9-8.1c-8.3-0.2-16.7,2.3-23.9,8.1c-11.9,9.6-16.6,22.4-16.2,37.6   c0.7,22.7,18.8,39.6,40.1,39.5c21.3,0.1,39.4-16.7,40.1-39.5C239,233,234.3,220.1,222.4,210.6z M214.1,256   c-2.6,6.8-7.5,10.9-15,11.2c-0.2,0-0.3,0-0.5,0s-0.3,0-0.5,0c-7.5-0.3-12.4-4.4-15-11.2c-3.3-8.9-3-17.6,2.2-25.7   c3.1-4.8,8.3-7.4,13.3-7.6c5,0.2,10.2,2.8,13.3,7.6C217.1,238.4,217.4,247.1,214.1,256z"></path>	</g>	<g>		<path class="st3" d="M442.2,39.4c0-14.9,10.9-25.2,24-25.2c13.2,0,24,10.3,24,25.2c0,15-10.9,25.2-24,25.2   C453.1,64.5,442.2,54.4,442.2,39.4z M485.2,39.4c0-12-8.2-20.6-19-20.6s-19,8.6-19,20.6c0,12.1,8.2,20.6,19,20.6   S485.2,51.5,485.2,39.4z M457,26.1h9.7c5.3,0,10,2.2,10,8.2c0,3.1-1.9,6.1-4.8,7.1l5.9,10.6H472l-4.6-9h-5.1v9H457V26.1z    M465.6,39c3.4,0,5.5-1.5,5.5-4.3c0-2.5-1.4-4.2-5.3-4.2h-3.5V39H465.6z"></path>	</g>	<path d="M692.3,359.2c0,0.9-0.4,1.6-1.3,1.9c-0.9,0.3-1.7,0.5-2.5,0.5c-2.1,0-4.5-0.9-7.5-2.8c-2.9-1.9-5.7-4-8.4-6.4  s-4.7-4.3-6.2-5.7v100.7H638V351c-2.5,6.2-5.8,12.3-10,18.5c-4.1,6.2-8.5,11.7-13,16.6c-0.9,1.1-2.3,2.5-4.1,4.3  c-1.8,1.7-3.7,3.3-5.7,4.6c-2,1.3-3.8,2-5.3,2c-0.6,0-1.3-0.2-1.9-0.5c-0.6-0.3-0.9-0.8-0.9-1.4c0-0.8,0.3-1.8,0.9-3  c0.6-1.2,1.1-2.1,1.4-2.7c3.5-6.9,6.6-14.9,9.4-23.8c2.8-8.9,5.1-18,7.1-27.4c2-9.3,3.4-17.8,4.1-25.3l18,5.7v-17.8h-30.6v-10.2  H638v-52.1h28.4v52.1h1.2c1.3-6,4.7-9,10.4-9c2.7,0,5.1,0.9,7.1,2.8c2.1,1.9,3.1,4.3,3.1,7.1c0,4.1-1.5,6.8-4.6,7.9  c-3.1,1.2-6.4,1.8-9.8,1.8c-1.1,0-2.3,0-3.6-0.1s-2.5-0.2-3.8-0.4v21.6l10.2-5.2c1.9,6.6,4.1,13.1,6.5,19.3  c2.4,6.2,5.1,12.5,7.9,18.8c0.3,0.6,0.6,1.3,0.8,1.9C692.2,357.7,692.3,358.4,692.3,359.2z M832.8,417.5c0,4.4-1.3,7.5-3.9,9.2  c-2.6,1.7-5.9,2.6-9.8,2.6c-4.3,0-8.3-1-12.2-3.1s-7.3-4.6-10.3-7.6c-4.4-4.4-8.8-9.6-13.3-15.4c-4.4-5.8-8.5-12-12.3-18.4  s-7-12.4-9.7-17.9v81.3h-28.9v-80.8c-4.4,9.5-10.2,18.8-17.4,28.1c-7.2,9.2-15,17.1-23.3,23.6c-1.3,0.9-3.1,2.2-5.4,3.8  c-2.4,1.6-4.8,3-7.3,4.4c-2.5,1.3-4.6,2-6.2,2c-0.6,0-1.3-0.1-2-0.4c-0.7-0.2-1.1-0.8-1.1-1.5s0.2-1.5,0.6-2  c0.4-0.6,0.7-1.1,1.1-1.5c9.3-11.2,16.8-23.4,22.4-36.5c5.6-13.1,10.5-26.6,14.6-40.5l24.2,8.1v-16.1h-46.9v-11.1h46.9v-38.9h-18  c-0.9,1.9-2.6,4.5-5,7.8s-5,6.7-7.9,10.2s-5.8,6.4-8.8,8.8c-2.9,2.4-5.5,3.6-7.7,3.6c-1.6,0-2.4-0.8-2.4-2.4l0.2-0.9  c2.2-5.4,4.1-10.8,5.8-16.3s3.1-11.1,4.4-16.6c1.6-6.5,2.7-13,3.4-19.7c0.7-6.6,1.5-13.3,2.3-19.9c0.9,0.3,2.8,0.8,5.7,1.5  c2.8,0.7,5.9,1.5,9.2,2.3s6.2,1.5,8.8,2.3c2.5,0.7,3.9,1.3,4.3,1.8c0.5,0.6,0.7,1.3,0.7,1.9c0,1.4-0.5,3.8-1.4,7s-2.1,6.5-3.3,9.7  c-1.3,3.2-2.3,5.6-3.1,7h12.8v-42.9h28.9V277h21.1c0.2-3.5,1.5-6.4,4.1-8.9c2.6-2.4,5.6-3.7,9.1-3.7s6.5,1.3,9,3.8s3.8,5.5,3.8,9  c0,4.4-1.5,7.5-4.4,9.2s-6.4,2.6-10.3,2.6h-32.5v38.9h36c0.2-4.1,1.7-7.3,4.5-9.7c2.8-2.4,6.2-3.6,10.2-3.6c3.5,0,6.5,1.2,9.1,3.7  s3.9,5.5,3.9,9.1c0,4.1-1.6,7.1-4.7,8.9c-3.2,1.8-6.6,2.7-10.2,2.7h-48.8v15.6l25.6-8.3c1.4,6.6,3.4,13.8,5.8,21.6  c2.4,7.7,5.2,15.4,8.2,22.9s6.2,14.2,9.5,20c3-3,6.6-4.5,10.7-4.5c3.2,0,5.9,1.1,8.3,3.3C831.6,411.7,832.8,414.4,832.8,417.5z"></path>	<path d="M984.6,388.4c0,0.9-0.5,1.9-1.4,2.8c-0.2,0.5-0.4,0.8-0.7,1.1c-0.3,0.2-0.6,0.5-0.7,0.8c-1.3,1.6-3.6,3.6-7,5.9  c-3.4,2.4-7.1,4.8-11.3,7.3c-4.1,2.5-8,4.8-11.7,6.8s-6.5,3.4-8.4,4.4c-11.5,5.5-23.2,10.3-35.1,14.3c-11.8,4-24.3,7.1-37.4,9.4  l-15.6-28.4c7.7-1.3,15.6-2.5,23.6-3.8s15.2-2.4,21.7-3.6v-61.8h-37.9V332h71.8c0.3-4.6,1.6-8.5,3.8-11.8s5.9-5,11.1-5  c4.6,0,8.3,1.3,11.1,3.8s4.3,6,4.3,10.4c0,4.7-1.6,8.3-4.9,10.7c-3.2,2.4-7.1,3.6-11.5,3.6h-16.6v55.7c8.1-1.7,16.1-3.8,24-6  c8-2.3,16.1-4.2,24.3-5.8c0.9-0.3,1.7-0.5,2.4-0.5C983.9,386.9,984.6,387.4,984.6,388.4z M1080.6,433.9c0,4.3-1.7,8.1-5.2,11.4  s-7.4,5-11.8,5s-9.2-0.8-14.2-2.5c-5.1-1.7-9.5-3.5-13.3-5.6c-5.8-3.5-11.6-7.8-17.3-12.9s-10.9-10.7-15.6-16.7  c-4.7-6-8.7-12-11.8-18c-7.7-14.8-13.8-30.8-18.2-47.7c-4.4-17-7.6-33.8-9.5-50.3H858.8v-12.1h103.3c-0.9-8.5-1.8-17.1-2.6-25.7  s-1.4-17.3-1.9-25.9h36c0.3,8.7,0.6,17.3,0.7,25.9c0.2,8.6,0.6,17.2,1.2,25.7h37.2c0.3-5.1,1.9-9.4,4.7-13c2.8-3.6,7.2-5.4,13-5.4  c5.1,0,9.2,1.5,12.4,4.6c3.2,3.1,4.9,7,4.9,11.7c0,4.9-1.8,8.5-5.3,10.8c-3.6,2.3-7.6,3.4-12.2,3.4h-54c0.9,10.7,2.6,22.4,5,35.1  c2.4,12.6,5.6,25.3,9.7,37.9c4.1,12.6,9.3,24.3,15.5,35.1c6.2,10.7,13.7,19.7,22.4,26.8c1.6-4.1,3.7-7.3,6.4-9.6  c2.7-2.3,6.3-3.4,10.9-3.4c4.4,0,7.9,1.7,10.5,5C1079.3,426.5,1080.6,430.1,1080.6,433.9z M1055.2,240.3c0,1.1-1.1,3-3.3,5.8  c-2.2,2.8-5.1,5.8-8.5,9.1c-3.5,3.3-7.1,6.5-11,9.6s-7.5,5.6-10.9,7.7s-6,3.1-7.9,3.1c-2.7,0-4-1-4-3.1c0-2.2,0.6-6,1.9-11.5  s2.8-11.4,4.5-17.8c1.7-6.4,3.2-12.1,4.5-17.2c5.1,1.6,10.3,3.1,15.6,4.5c5.4,1.4,10.5,3.1,15.4,5c1.1,0.5,2,1.1,2.7,1.8  C1054.9,238,1055.2,239,1055.2,240.3z"></path>	<path d="M1328.6,320.1c0,4.4-1.5,7.6-4.5,9.5s-6.5,2.8-10.4,2.8c-7,0-14.1-1.3-21.4-4s-14.3-6.1-21-10.3  c-6.6-4.2-12.6-8.5-17.8-12.9c-7.3-6.2-14.2-13.7-20.7-22.6c-6.6-8.9-12.2-17.5-16.9-25.7c-1.1,0.6-2.7,1.5-4.9,2.6  c-2.1,1.1-4.1,2.3-6,3.4c-1.9,1.2-3.2,2.2-4,3s-1.5,1.7-2.1,2.6s-1.3,1.8-2.1,2.6c-1.6,2.1-3.2,4.1-5,6.2c-1.7,2.1-3.5,4-5.2,5.9  c-5.8,6.6-12.3,13.3-19.4,19.9s-14.6,12.8-22.5,18.4s-16,10.1-24.2,13.6c-1.1,0.5-2.7,1.1-4.7,1.8c-2.1,0.7-4.1,1.4-6.2,2  s-3.6,0.9-4.7,0.9c-0.6,0-1.3-0.2-1.9-0.6s-0.9-0.9-0.9-1.5c0-0.5,0.2-0.9,0.7-1.4s0.8-0.8,0.9-0.9c0.6-0.6,1.4-1.2,2.4-1.7  c8.5-6.9,16.3-14.5,23.5-22.7c10.9-12.5,20.6-26.1,29.1-40.9c8.5-14.8,15.8-29.8,21.8-45.1l33.6,6.9c1.4,0.2,2.5,0.5,3.2,0.9  c0.7,0.5,1.1,1.6,1.1,3.3c0,1.3-0.9,3.2-2.7,5.8c-1.8,2.6-3.2,4.5-4.1,5.8c1.1-0.5,3-1.3,5.8-2.5s5.7-2.4,8.9-3.6  c3.2-1.2,6-2.2,8.6-3.1c2.6-0.9,4.4-1.3,5.3-1.3c2.2,0,3.9,0.9,5.2,2.6c0.5,0.6,0.9,1.4,1.2,2.4c0.3,0.9,0.6,1.8,0.9,2.6  c6,13.9,13.6,27.1,22.7,39.6c9.2,12.5,19.7,23.4,31.7,32.7c1.3-2.5,3.1-4.7,5.6-6.5c2.4-1.8,5.2-2.7,8.2-2.7c3.3,0,6.3,1.2,9,3.6  C1327.3,313.7,1328.6,316.7,1328.6,320.1z M1304,356.4c0,4.3-1.7,7.3-5,9.1c-3.3,1.8-6.8,2.7-10.4,2.7h-71.1  c-3.3,5.8-7.6,12-12.8,18.5c-5.2,6.5-10.7,12.7-16.6,18.7c-5.8,6-11.4,11.1-16.6,15.4c7.4-0.5,15.8-1.2,25.1-2.1  c9.3-0.9,18.6-2.4,27.7-4.3c9.2-1.9,17-4.4,23.5-7.6c-3-1.9-5.9-3.8-8.8-5.7c-2.8-1.9-5.8-3.7-8.8-5.4l25.3-16.6  c3.6,2.5,7.8,6,12.4,10.5c4.7,4.5,9.2,9.4,13.5,14.8s7.9,10.8,10.8,16.3c2.8,5.5,4.3,10.6,4.3,15.2c0,4.4-1.5,8.2-4.4,11.4  c-2.9,3.2-6.7,4.7-11.3,4.7c-3.6,0-7.1-0.9-10.3-2.8c-3.2-1.9-4.9-4.9-4.9-9c0-2.7,0.7-5.3,2.1-7.9s3.4-4.5,5.9-5.6  c-2.5-2.2-5.2-4.3-7.9-6.4c-2.8-2.1-5.5-4.1-8.2-6.2c-4.7,5.2-9.7,9.2-14.9,12c-5.2,2.8-11.2,5.1-18,7c-14.4,3.9-29.3,6.9-44.7,8.8  c-15.4,1.9-30.5,3.4-45.4,4.5l-8.3-24.6c2.2,0,4.8-0.1,7.7-0.2c2.9-0.2,5.5-0.5,7.7-0.9c1.9-0.5,3.7-1,5.6-1.5  c1.8-0.6,3.4-1.5,4.6-3c2.2-2.2,4.7-5.4,7.3-9.5c2.7-4.1,5.3-8.5,7.9-13.3c2.6-4.7,5-9.4,7.2-13.9s4-8.3,5.4-11.3h-66.8v-11.8h162  c0.3-4.1,1.8-7.5,4.5-10.3s6.1-4.1,10.2-4.1c3.8,0,7.1,1.5,9.8,4.5C1302.6,349.4,1304,352.8,1304,356.4z M1252.8,316.1  c0,4.3-1.4,7.2-4.3,8.9c-2.8,1.7-6.2,2.5-10,2.5h-78.4v-12.1h66.3c0.6-2.8,2.1-5.4,4.5-7.8s5.1-3.6,8.1-3.6c3.2,0,6.2,1.2,9.2,3.6  C1251.3,310,1252.8,312.8,1252.8,316.1z"></path>	<path d="M1454.9,377.5c0,2.4-1.3,3.6-3.8,3.6c-1.3,0-3.7-1.1-7.2-3.4c-3.6-2.3-7.2-4.7-11-7.2c-3.5-2.5-6.8-5-10.1-7.3  c-3.2-2.4-5.7-4.2-7.5-5.4v89.1h-28.9V359c-3.3,2.2-7.4,4.7-12.3,7.5s-9.9,5.1-14.9,7.1c-5.1,2-9.5,3-13.3,3  c-1.7,0-2.6-0.8-2.6-2.4c0-0.6,0.2-1.2,0.7-1.7c1.6-1.3,3.2-2.6,4.7-3.9c1.6-1.3,3.1-2.6,4.5-3.9c4.4-3.9,8.8-8.1,13-12.6  c4.3-4.4,8.2-8.9,11.8-13.5c5.7-7.1,11.2-15.2,16.5-24.2s9.7-17.8,13.1-26.3h-51.4v-11.6h84.6c2.7,0,4,1,4,3.1  c0,1.9-0.8,4.7-2.4,8.4c-1.6,3.7-3.6,7.8-6.2,12.3c-2.5,4.5-5.1,9-7.8,13.5c-2.7,4.5-5.3,8.5-7.7,12.1c-2.5,3.6-4.3,6.2-5.6,7.9  v17.1c2.7-2.2,5.4-4.5,8.3-6.8c2.8-2.3,5.8-4.7,8.8-7.2c1.7,1.7,3.8,4.4,6.3,7.9c2.4,3.6,4.9,7.5,7.5,11.7  c2.5,4.3,4.6,8.3,6.3,12.1C1454.1,372.5,1454.9,375.4,1454.9,377.5z M1431.2,235.3c0,1.1-1.1,3.4-3.3,6.8  c-2.2,3.4-4.8,7.1-7.8,11.1s-5.8,7.7-8.5,11.1s-4.5,5.6-5.4,6.5c-0.8,0.8-1.8,1.6-3,2.4s-2.6,1.2-4.1,1.2c-4.6,0-6.9-2.1-6.9-6.4  c0-13.6,0.2-27.5,0.7-41.7c1.6,0.2,4.1,0.5,7.7,0.9c3.6,0.5,7.4,1.1,11.5,1.8s7.8,1.4,11.1,2c3.3,0.6,5.4,1.2,6.4,1.7  C1430.6,233.4,1431.2,234.2,1431.2,235.3z M1577.6,418.7c0,5.7-1.5,9.8-4.4,12.3s-6.6,4.1-10.9,4.7s-8.7,0.9-13.1,0.9H1431v-12.1  h52.6v-98.1h-41.7v-12.1h41.7v-73.2h30.6v73.2h19.9c0.2-3.8,1.7-7.4,4.6-10.9s6.4-5.2,10.5-5.2s7.6,1.3,10.5,3.9s4.4,5.8,4.4,9.6  c0,5.4-1.8,9.2-5.3,11.4c-3.6,2.2-7.7,3.3-12.4,3.3h-32.2v98.1h32.5c-1.3-2.1-1.9-4.1-1.9-6.2c0-3.9,1.8-7.4,5.4-10.4  s7.4-4.5,11.4-4.5c4.1,0,7.8,1.6,11.1,4.7C1575.9,411.4,1577.6,414.9,1577.6,418.7z"></path>	<path d="M1832.8,424.6c0,1.3-0.5,2.1-1.5,2.6s-2.1,0.7-3.2,0.7c-3,0-6.2,0.1-9.5,0.4c-3.3,0.2-6.6,0.4-9.7,0.4  c-2.5,0-5.1,0-7.6-0.1s-5.1-0.1-7.8-0.1c-4.4,0-7.9-0.8-10.4-2.4s-5.1-4.1-7.6-7.6c-8.7-12.6-17.5-25.3-26.4-38.1  c-8.9-12.8-17.7-25.4-26.4-37.9l-1.2,0.9c0.2,11.7,0.2,23.4,0.2,35.2c0,11.8,0,23.5,0,35.2c0,1.1,0.1,2.4,0.4,3.9  c0.2,1.5,1.1,2.3,2.7,2.3c2.1,0,4.1,0,6.2-0.1s4.1-0.1,6.2-0.1c1.3,0,2.3,0.4,3,1.3s1.1,1.9,1.1,3.2c0,0.9-0.4,1.9-1.2,3  c-0.8,1-1.7,1.5-2.8,1.5c-2.2,0-4.4-0.1-6.6-0.2c-2.2-0.2-4.4-0.3-6.6-0.5c-3.2-0.2-6.3-0.3-9.5-0.4s-6.3-0.1-9.5-0.1  c-3.5,0-6.9,0-10.3,0s-6.8,0.2-10.3,0.5c-1.7,0.2-3.6,0.3-5.7,0.5s-4,0.2-5.9,0.2c-3.5,0-5.2-1.7-5.2-5c0-1.6,0.6-2.6,1.7-3.2  s2.3-0.8,3.6-0.8c1.6,0,3.2,0,5,0.1c1.7,0.1,3.4,0.1,5,0.1c2.8,0,4.5-1.2,4.9-3.7c0.4-2.4,0.6-4.7,0.6-6.8V274.2  c0-1.4-0.1-3.1-0.2-5.1c-0.2-2-0.6-3.7-1.3-5.1c-0.7-1.4-2-2.1-3.9-2.1h-10.7c-1.1,0-2.1-0.3-3.1-0.8c-0.9-0.6-1.4-1.4-1.4-2.5  c0-3.2,1.3-4.7,4-4.7c1.9,0,4.1,0,6.5,0.1s4.5,0.2,6.3,0.4c3.2,0.2,7,0.2,11.5,0.2s9,0,13.4,0c2.4,0,4.7,0,6.9,0  c2.2,0,4.5-0.1,6.9-0.2c2.2-0.2,4.6-0.3,7.2-0.4c2.6-0.1,4.9-0.1,7-0.1c1.1,0,2,0.4,2.7,1.3c0.7,0.9,1.1,1.8,1.1,2.7  c0,0.9-0.4,1.9-1.2,2.7c-0.8,0.9-1.7,1.3-2.6,1.3H1726c-1.6,0-2.6,0.7-3.1,2s-0.7,2.6-0.7,3.7c0,5.5,0,11-0.1,16.5  c-0.1,5.4-0.1,10.9-0.1,16.5v31.3c6.5-6.2,12.8-12.4,19.1-18.8c6.2-6.4,12.4-12.8,18.4-19.1c2.2-2.2,4.8-5,7.7-8.3  c2.9-3.3,5.8-6.6,8.5-9.9c2.8-3.3,4.9-6.2,6.5-8.5c0.5-0.6,1.4-2,2.7-4c1.3-2.1,2.3-3.6,3-4.7c1.6-3,3.3-4.5,5.2-4.5  c2.2,0,3.7,0,4.5,0s1.6,0,2.4,0s2.3,0,4.5,0c3.6,0,6.4,0,8.2,0c1.8,0,4.5,0,7.9,0c3,0,4.5,1.3,4.5,3.8c0,2.5-0.7,3.9-2.1,4.3  c-1.4,0.3-3.2,0.5-5.4,0.5c-2.8,0.2-5.7,0.9-8.6,2.4c-2.9,1.4-5.3,3.1-7.2,5l-55,53.8c11.1,15.3,22.5,30.6,34.2,46  c11.8,15.3,23.4,30.5,34.9,45.5c1.3,1.6,2.9,2.8,4.9,3.7c2,0.9,4,1.5,6,1.8c1.3,0.2,2.7,0.5,4.3,0.9  C1832,421.8,1832.8,422.9,1832.8,424.6z"></path>	<path d="M2025.4,341.5c0,17.5-3,32.8-9.1,45.8s-15.2,23.2-27.5,30.4c-12.2,7.3-27.7,10.9-46.3,10.9c-18.3,0-33.6-3.7-45.8-11.1  c-12.2-7.4-21.4-17.7-27.5-30.8c-6.1-13.1-9.1-28.2-9.1-45.3c0-12.2,1.8-23.6,5.4-34.2c3.6-10.7,9-20.1,16.1-28.2  s15.8-14.5,25.9-19.2c10.2-4.7,21.8-7,34.9-7c18.3,0,33.6,3.8,46,11.5c12.3,7.7,21.6,18.2,27.7,31.5  C2022.3,309.2,2025.4,324.4,2025.4,341.5z M1989.4,341.5c0-5.7-0.4-12-1.3-19.1c-0.9-7-2.3-14.1-4.3-21.3c-2-7.2-4.7-13.8-8.3-19.9  c-3.6-6.1-8.1-11-13.5-14.7s-12-5.6-19.5-5.6c-6.3,0-12,1.6-16.9,4.7c-5,3.2-9.3,7.2-13,12.2s-6.7,10.3-9,16.1  c-2.3,5.8-4.1,11.3-5.3,16.5c-2.4,10.1-3.6,20.5-3.6,31c0,5.7,0.5,12,1.4,19.1c0.9,7,2.5,14.1,4.6,21.1s5,13.5,8.6,19.3  s8.2,10.6,13.6,14.2s12,5.4,19.5,5.4c7.6,0,14.1-1.8,19.4-5.4c5.4-3.6,9.8-8.4,13.4-14.3s6.4-12.4,8.4-19.4c2.1-7,3.5-14,4.4-21  C1988.9,353.5,1989.4,347.1,1989.4,341.5z"></path>	<path d="M2271,423.2c0,3.5-1.6,5.2-4.7,5.2c-5.4,0-10.7-0.1-16-0.2c-5.3-0.2-10.6-0.2-16-0.2s-10.7,0.1-16.1,0.4  c-5.4,0.2-10.7,0.4-16.1,0.4c-1.7,0-3-0.5-3.8-1.5s-1.2-2.3-1.2-3.9c0-1.4,0.6-2.4,1.9-3.1c1.3-0.6,2.4-0.9,3.6-0.9  c1.7,0,3.6,0,5.4,0.1c1.9,0.1,3.7,0.1,5.4,0.1c1.6,0,2.6-0.7,3.1-2s0.7-2.8,0.8-4.5s0.1-3,0.1-3.9V289.8  c-5.2,13.6-10.9,27.8-17.2,42.5c-6.2,14.8-12.4,29.5-18.6,44.3c-6.2,14.8-11.9,29-17.3,42.8H2145c-8.8-22.4-17.8-44.9-26.8-67.4  s-17.9-45-26.8-67.4c0,20.7,0.2,41.5,0.5,62.3s0.5,41.7,0.5,62.5c0,1.6,0,3.7,0.1,6.3c0.1,2.6,1.4,3.9,3.9,3.9c1.9,0,3.4,0,4.5-0.1  s2.6-0.1,4.5-0.1c1.3,0,2.4,0.4,3.3,1.3c0.9,0.9,1.4,1.9,1.4,3.2c0,0.8-0.4,1.7-1.3,2.8c-0.9,1.1-1.8,1.7-2.7,1.7  c-2.7,0-5.1-0.1-7.1-0.2c-2.1-0.2-4.4-0.2-7.1-0.2c-4.9,0-10.2,0.1-15.8,0.2c-5.6,0.2-10.9,0.2-16,0.2c-1.9,0-3.1-0.5-3.7-1.4  c-0.6-0.9-0.8-2.2-0.8-3.8c0-1.3,0.6-2.2,1.8-2.8c1.2-0.6,2.3-0.9,3.4-0.9c1.3,0,2.9,0,4.9,0.1s3.6,0.1,4.9,0.1  c2.5,0,4.3-0.4,5.3-1.1s1.5-2.4,1.5-5.1c0-24,0.1-47.9,0.4-71.8c0.2-23.8,0.4-47.7,0.4-71.5c0-2.2-0.4-3.9-1.1-5.1  c-0.7-1.2-2.3-1.8-4.9-1.8c-1.6,0-3.4,0-5.3,0.1c-2,0.1-3.8,0.1-5.3,0.1c-1.4,0-2.7-0.4-3.8-1.3s-1.7-2-1.7-3.4c0-3.3,1.8-5,5.4-5  c3.8,0,7.8,0.1,12.1,0.4c4.3,0.2,8.3,0.4,12.1,0.4c4.7,0,9.5,0,14.2-0.1s9.4-0.4,14-0.8l51.2,128.4c4.9-11.8,10.3-24.8,16.2-38.9  s11.9-28.6,17.9-43.7s11.5-30,16.6-44.9c3.9,0,7.8,0,11.6,0.1s7.6,0.1,11.4,0.1c4.7,0,9.4-0.2,14.1-0.5c4.7-0.3,9.4-0.5,14.1-0.5  c1.3,0,2.3,0.6,3,1.7s1.1,2.2,1.1,3.3s-0.4,2.2-1.1,3.3c-0.7,1.1-1.7,1.7-3,1.7h-12.3c-1.6,0-2.6,0.6-3,1.9s-0.6,2.5-0.6,3.8  c0,9.2,0,18.4-0.1,27.6s-0.1,18.5-0.1,27.8c0,13.9,0,27.7,0.1,41.5c0.1,13.7,0.1,27.6,0.1,41.5c0,1.1,0.1,2.6,0.2,4.5  c0.2,1.9,0.6,3.6,1.4,5.1c0.8,1.5,2.1,2.3,3.8,2.3s3.4,0,5.1-0.1c1.7-0.1,3.3-0.1,4.9-0.1c1.3,0,2.3,0.3,3.2,0.9  C2270.6,421,2271,421.9,2271,423.2z"></path>	<path d="M2441.4,386.7c0,2.5-0.2,5.2-0.5,7.9c-0.3,2.8-0.6,5.3-0.9,7.7c-0.3,3.2-0.6,6.3-0.8,9.4s-0.6,6.2-1.1,9.4  c-0.3,2.7-1.1,4.5-2.4,5.4c-1.3,0.9-3.2,1.4-5.9,1.4c-15.6,0-31.8-0.1-48.6-0.4c-16.7-0.2-32.9-0.4-48.6-0.4  c-5.4,0-10.7,0.2-16.1,0.7c-5.4,0.5-10.7,0.7-16.1,0.7c-2.8,0-4.3-1.3-4.3-3.8c0-1.9,0.6-3.1,1.9-3.7c1.3-0.6,2.8-0.9,4.5-0.9  c1.7-0.1,3.4-0.3,5-0.6c4.1-1.1,6.6-3.3,7.6-6.6c0.9-3.3,1.4-6.7,1.4-10.2V275.4c0-2.2-0.4-4.5-1.2-7c-0.8-2.4-2.6-3.7-5.4-3.7  c-1.9,0-3.8,0.1-5.7,0.2c-1.9,0.2-3.8,0.2-5.7,0.2c-4.4,0-6.6-2-6.6-5.9c0-2.2,0.7-3.6,2.3-4.1c1.5-0.6,3.1-0.8,4.9-0.8  c5.1,0,10.1,0.1,15.2,0.2c5.1,0.2,10,0.2,14.9,0.2c13.9,0,28-0.1,42.4-0.2c14.4-0.2,28.5-0.2,42.4-0.2c3,0,6-0.1,8.9-0.4  c2.9-0.2,5.9-0.5,8.9-0.8l2.1,15.4c0.5,3.2,1.1,6.4,2,9.6s1.3,6.4,1.3,9.6c0,1.9-0.9,3.5-2.6,4.7c-1.7,1.3-3.6,1.9-5.4,1.9  c-2.1,0-3.8-0.4-5.1-1.1s-2.4-2.1-3.2-4.1c-2.2-7.1-5.6-13.1-10.1-18.1s-10.9-7.5-19.3-7.5h-41v69.7c8.2,0,16.6-0.3,25.2-0.8  c8.6-0.6,16.9-1.7,24.8-3.4c2.2-0.5,4.5-1.1,7-2c2.4-0.9,4.9-1.3,7.2-1.3c2.4,0,3.6,1,3.6,3.1c0,1.1-0.3,2.7-0.8,4.9  c-0.6,2.1-1,3.8-1.3,5.1c-0.6,2.1-1.5,3.4-2.5,3.9c-1,0.6-2.6,0.8-4.9,0.8c-3.8,0-7.6-0.2-11.4-0.7c-5.8-0.6-11.8-1.1-17.8-1.3  c-6-0.2-11.9-0.4-17.8-0.4c-3.5,0-6.2,0.9-8.3,2.7c-2.1,1.8-3.1,4.5-3.1,7.9v57.8c0,3.6,0.4,6.1,1.2,7.5c0.8,1.3,2.1,2.1,4,2.1  c1.9,0.1,4.4,0.1,7.6,0.1c5.2,0,11.1,0,17.8-0.1c6.6-0.1,13.1-0.8,19.4-2.3c6.3-1.4,11.4-4.1,15.2-8.1c2.7-2.7,5.1-6.2,7.3-10.7  c2.2-4.4,4.1-8.4,5.7-11.8c0.9-1.9,1.8-3.2,2.6-4s2.4-1.2,4.7-1.2C2439.6,381,2441.4,382.9,2441.4,386.7z"></path>	<g>		<path d="M767.3,169.1c0,2.6-0.8,4.6-2.3,6.2c-1.5,1.6-3.7,2.7-6.5,3.4c-1.8,0.4-4.1,0.7-6.9,0.9c-2.8,0.2-5,0.2-6.5,0.2   c-5.6,0-11.4-0.9-17.2-2.7s-11.5-4.2-17.1-7.1c-5.6-2.9-10.9-6.1-15.9-9.5c-6.2,3.4-12.1,6.3-17.7,8.8c-5.6,2.4-11.4,4.4-17.2,6   c-5.8,1.5-12.1,2.6-18.8,3.3c-1,0.1-2.4,0.2-4.4,0.3s-3.5,0.2-4.6,0.2c-0.7,0-1.2-0.1-1.4-0.4c-0.2-0.3-0.3-0.6-0.3-0.9   c0-0.6,0.5-1.1,1.6-1.3c2.1-0.3,4.8-0.9,8.1-1.8c3.3-0.9,6.5-1.8,9.5-2.8s5.2-1.7,6.6-2.2c5.1-2.1,10.1-4.5,15-7.1   s9.7-5.6,14.4-8.9c-1.3-0.9-2.4-1.7-3.5-2.6c-1.1-0.9-2.2-1.8-3.4-2.8c-1.7-1.3-3.4-2.7-4.9-4.3l9.6-5.4c1.5,1.4,3.1,2.8,4.8,4.2   s3.6,3,5.6,4.8c3.1-2.8,5.9-5.5,8.5-8.1s5.2-5.5,7.7-8.5h-30.2c-2.7,3-5.4,5.9-8.1,8.6c-2.8,2.8-5.5,5.3-8.3,7.5   c-2.3,2-4.7,3.8-7.1,5.4c-2.4,1.6-4.9,3-7.4,4.3c-1.7,0.9-3.4,1.7-5.2,2.5s-3.6,1.5-5.5,2c-0.6,0.3-1.3,0.4-1.9,0.2   c-0.9,0-1.3-0.3-1.3-1c0-0.4,0.3-0.9,0.8-1.4c2.3-1.4,5.2-3.5,8.5-6.2c3.3-2.8,6.3-5.5,8.9-8.1c4.2-4.3,8.1-8.8,12-13.7   c3.8-4.9,7.1-9.8,9.9-14.7l11.8,6.4l-2.9,3h45.5c0.3,0,0.7,0.1,1,0.4c0.4,0.3,0.6,0.8,0.6,1.5c0,1.6-1.1,3.7-3.2,6.3   c-2.1,2.6-4.7,5.3-7.8,8.1s-6.1,5.3-9.1,7.7c-3,2.3-5.3,4.1-7,5.3c6.4,4,13.4,8,21,11.8s15.8,6.5,24.5,8c1.3,0.3,2.9,0.5,4.8,0.5   c1.5,0,2.9-0.3,4.2-0.8c-2.9-0.6-4.3-2.2-4.3-4.8c0-1.9,0.7-3.4,2-4.5s2.7-1.6,4.1-1.6c1.5,0,3,0.5,4.6,1.4   C766.5,165.7,767.3,167.2,767.3,169.1z M763.3,73c-0.4,3.1-1.3,6.2-2.5,9.4c-1.2,3.2-2.7,6.2-4.6,8.9c-1.2,1.9-2.6,3.9-4.3,6.1   c-1.7,2.1-3.5,3.8-5.3,4.9c-0.4,0.2-0.9,0.4-1.3,0.6c-0.4,0.2-0.9,0.3-1.4,0.3c-1.1,0-1.6-0.5-1.6-1.6c0-0.2,0.1-0.4,0.2-0.6   c0.1-0.4,0.2-0.9,0.3-1.5s0.2-1.3,0.3-2c0.2-0.9,0.4-1.7,0.5-2.6s0.2-1.8,0.3-2.8c0.4-2.4,0.8-4.9,1-7.3c0.3-2.4,0.5-4.6,0.6-6.5   H644.4v23.5h-13.1V73h32.6c-2.3-2.8-4.4-5.4-6.3-8c-1.9-2.6-3.5-5.2-5-7.8c-1,0-2.2,0-3.8,0.1s-3.2,0.1-4.9,0.1s-3.4,0-4.9-0.1   c-1.6-0.1-2.9-0.1-3.8-0.2c-1.1-0.1-1.7-0.8-1.8-2s0.7-1.9,2.4-2c1-0.1,1.9-0.2,2.7-0.2c0.9,0,1.6-0.1,2.4-0.2   c8.8-1,18.1-2.3,27.9-4.2c9.8-1.8,19.4-4,28.9-6.6s18.1-5.5,26-8.7l12,6.5c0.4,0.1,0.9,0.3,1.4,0.6s1,0.5,1.4,0.7l2.4,1.4   c0.2,0.4,0.3,0.8,0.3,1.1c0,0.9-0.6,1.6-1.8,2.2c-0.5,0.1-1.1,0.2-1.6,0.4s-1.1,0.3-1.8,0.4c-2.3,0.5-4.7,1.1-7.2,1.7   c-2.4,0.6-5.3,1.3-8.5,2c1.6,0.5,2.9,1,3.9,1.4s1.9,0.7,2.8,1c0.9,0.3,1.7,0.6,2.6,1c0.9,0.3,1.7,0.7,2.5,1.3   c1.3,0.5,1.9,1.4,1.9,2.6c0,0.9-0.3,1.5-0.8,2.1l-2.4,1.9c-0.4,0.3-0.9,0.6-1.3,1c-0.4,0.3-0.9,0.6-1.3,1c-1.9,1.5-3.9,3-6,4.6   c-2.1,1.5-4.3,3.2-6.8,5L763.3,73L763.3,73z M667.8,95.2c0,0.4-0.2,0.9-0.5,1.4c-1.1,2-2.6,4.3-4.7,6.8c-2.1,2.5-4.3,4.8-6.8,6.9   c-1.4,1.2-2.7,2.3-4.1,3.4c-1.3,1.1-2.6,1.9-3.9,2.6c-0.5,0.3-1,0.5-1.4,0.6s-0.7,0.1-0.9,0.1c-0.7,0-1.1-0.3-1.1-1   c0-0.3,0.3-0.9,0.8-1.6s1.2-1.7,2-2.8c0.8-1.1,1.4-2.1,1.8-3c1.5-3,2.8-6,4.1-9.1c1.2-3.1,2.3-6.3,3.3-9.6l10.1,3.7   c0.2,0.1,0.5,0.3,0.8,0.5C667.7,94.3,667.8,94.6,667.8,95.2z M691.9,73c-2.3-2.9-4.4-5.7-6.1-8.4c-1.8-2.7-3.5-5.6-5.2-8.5   c-2.1,0.1-4.2,0.2-6.1,0.3c-2,0.1-4.1,0.2-6.3,0.3c0.2,2.9,0.4,5.6,0.6,8.2c0.2,2.6,0.5,5.3,0.8,8.1C669.6,73,691.9,73,691.9,73z    M736,104.4c0,1.1-0.4,2.1-1.2,3.2s-1.6,1.9-2.5,2.6c-3.9,3.3-8.8,5.5-14.6,6.6s-11.2,1.7-16.2,1.7c-3.3,0-6.9-0.4-10.8-1.2   c-3.9-0.8-7.3-2.3-10.2-4.4s-4.7-5.2-5.3-9.3c-0.4-3.1-0.7-6.3-0.9-9.6c-0.2-3.3-0.3-6.6-0.6-9.9h11.8c0,3,0,6,0.1,9.2   c0.1,3.1,0.4,6.2,1,9.2c0.5,2.3,1.9,4.1,4,5.3c2.1,1.2,4.5,2,7.1,2.5c2.6,0.4,4.9,0.6,6.9,0.6c4,0,8.3-0.2,12.9-0.7   c4.5-0.5,8.5-1.3,12.1-2.5c-1.8-0.6-2.7-1.8-2.7-3.4c0-1.4,0.5-2.5,1.5-3.4s2-1.3,3.1-1.3c1.5,0,2.6,0.5,3.4,1.4   C735.6,102.1,736,103.1,736,104.4z M709.3,85.3c0,0.7-0.7,2.1-2.1,4.1c-1.4,2-3,4-4.9,6.1s-3.6,3.7-5.2,4.9c-0.7,0.6-1.5,1-2.2,1   c-0.9,0-1.3-0.3-1.3-1c0-0.4,0.1-1,0.3-1.6c0.5-1.9,1.2-4.4,1.9-7.4s1.3-6,1.8-9l10.7,1.9h0.2l0.2,0.2l0.2,0.2   C709.2,84.6,709.3,84.8,709.3,85.3z M718.1,50.8c-4.2,0.7-8,1.4-11.5,2s-7.1,1.1-10.9,1.7c0.2,3.2,0.5,6.3,0.8,9.3   c0.3,3,0.6,6.1,0.8,9.2h13.9c1.2-3.7,2.3-7.4,3.4-10.9C715.8,58.5,717,54.7,718.1,50.8z M733.5,87.3c0,0.7-0.7,1.8-2.1,3.2   c-1.4,1.4-3.1,2.8-5.2,4.4c-2.1,1.5-4.2,3-6.3,4.2c-0.4,0.3-0.8,0.6-1.2,0.8c-0.4,0.2-0.8,0.4-1.2,0.6s-0.8,0.4-1.2,0.6   s-0.8,0.4-1.4,0.6v0.2h-0.3c-0.1,0.1-0.4,0.2-0.8,0.2c-0.6,0-1-0.2-1-0.6c0-0.3,0.1-0.7,0.3-1.1c1.5-2.6,2.8-5.2,4.1-8.1   c1.2-2.8,2.5-6,3.9-9.7l11.2,3.2C733.1,86.1,733.5,86.6,733.5,87.3z"></path>		<path d="M925.2,102.5c0,2.8-0.9,5.2-2.6,7.2c-1.8,2-4.5,3.2-8.2,3.7c-17.7,1.9-34.6,6.7-50.8,14.4c0,3,0.1,6,0.2,9.2   c0.1,3.1,0.1,6.3-0.2,9.3c-0.1,1.3-0.4,2.7-0.8,4.2c-0.4,1.5-1.5,2.3-3.4,2.2c-3.6-0.1-6.1-1.2-7.6-3.2c-1.4-2-2.1-4.7-1.8-8.1   c0.1-1.4,0.2-2.7,0.3-4s0.2-2.6,0.3-4c-1.8,1-3.9,2.3-6.3,3.9c-2.4,1.7-4.5,3.5-6.3,5.7c-1.8,2.1-2.7,4.3-2.7,6.5   c0,3.4,1.3,6.1,3.8,8s5.4,3.2,8.8,4c3.4,0.7,6.4,1.1,9,1.1c4.4,0,8.6-0.3,12.7-0.8c4.1-0.5,8.3-1.2,12.5-2.1   c0.3-0.1,0.6-0.2,1-0.2c0.3-0.1,0.6-0.1,1-0.1c1.9,0,3.8,0.3,5.7,0.8s3.5,1.4,4.9,2.6c1.3,1.2,2,3,2,5.3c0,2.1-1,3.9-2.9,5.2   s-4.3,2.3-7.1,3s-5.6,1.1-8.2,1.4c-2.7,0.2-4.8,0.3-6.4,0.3c-3-0.1-6-0.2-9.2-0.3c-3.1-0.1-6.3-0.4-9.3-0.8   c-3.6-0.6-7.3-1.7-10.9-3.3c-3.7-1.5-6.7-3.8-9.2-6.6c-2.4-2.9-3.7-6.4-3.7-10.7c0-3.1,0.5-5.8,1.4-8.2s2.4-4.8,4.4-7.1   c1.9-2.3,4.3-4.7,7.2-7s5.6-4.3,8.3-5.9c0.1-1.3,0.2-2.5,0.2-3.8c0.1-1.2,0.1-2.5,0.1-3.8c0-1.7,0-3.4,0-5s-0.1-3.3-0.2-5   c-0.1-2.3-0.7-4.3-1.8-5.7c-1.1-1.5-3-2.1-5.7-1.9c-1.7,0.1-3.7,0.7-5.9,1.9c-2.2,1.2-3.9,2.4-4.9,3.8c-2.2,3-4.3,6.2-6.1,9.7   s-3.5,6.9-4.9,10.5c-0.3,0.7-0.7,1.5-1,2.3c-0.4,0.8-0.8,1.6-1.2,2.5c-0.6,1.2-1.6,2.4-2.9,3.8c-1.3,1.3-2.7,2-4.2,2   c-2,0-3.5-0.7-4.5-2s-1.7-2.9-1.9-4.8c-0.3-1.9-0.4-3.5-0.4-5c0-2.8,0.6-5,1.8-6.6s2.8-3.2,4.9-4.7c6.3-4.6,11.3-9.5,14.9-14.7   c3.7-5.2,7-11.3,10.1-18.2c-2.4,0.4-5.2,0.6-8.4,0.5c-3.1-0.1-6.2-0.6-9.1-1.5c-2.9-0.9-5.5-2.3-7.6-4.2c-2.1-1.9-3.5-4.3-4-7.3   c-0.2-0.2-0.1-0.3,0.3-0.3c4.3,1.2,8,1.9,11.3,2.1s6.6-0.1,10-0.8c3.4-0.7,7.1-1.9,11.3-3.4c0.9-2.2,1.6-4.8,2.2-7.6   c0.6-2.8,0.8-5.6,0.6-8.2c-0.3-2.7-1.5-4.7-3.8-6.2c-0.9-0.7-1.8-1.2-2.9-1.4c-0.7-0.2-0.9-0.5-0.3-1c2-1.7,4.5-2.6,7.5-2.6   c2.3,0,4.6,0.5,6.8,1.4c2.2,1,4,2.3,5.5,4s2.2,3.7,2.2,5.9c0,0.6-0.3,1.7-1,3.1c-0.6,1.4-1.3,2.8-2.1,4.2   c-0.7,1.4-1.3,2.4-1.8,3.2c1.5-0.9,3-1.7,4.4-2.6c1.4-0.9,2.8-1.8,4.2-2.9c0.5-0.5,1.2-1.1,2.1-1.8c0.9-0.7,1.6-1,2.4-1   c2.1,0,4.3,0.7,6.5,2.1c2.2,1.4,3.3,3.3,3.3,5.7c0,1.8-0.7,3.3-2.1,4.5c-1.3,1.2-3.2,2.4-5.7,3.8s-5.2,2.7-8.1,4.1   c-2.9,1.3-5.7,2.5-8.5,3.6c-2.7,1.1-4.9,1.9-6.6,2.6c-1.4,3.4-2.9,6.8-4.5,10.1c-1.7,3.4-3.3,6.7-4.9,10.1   c1.2-0.5,2.6-1.1,4.2-1.7c1.6-0.6,3.1-0.9,4.2-1c4.3-0.2,7.6,0.6,9.9,2.6c2.3,1.9,4,4.4,5.1,7.5s1.8,6.4,2.2,9.9   c1.5-2.9,3.5-6.3,5.9-10.1c2.4-3.9,5.2-7.7,8.3-11.5s6.3-7.1,9.7-10s6.7-4.7,10-5.4c0.9-0.2,1.7-0.3,2.5-0.4s1.6-0.1,2.3-0.1   c3,0,5.7,0.5,8.2,1.4s4.8,2.1,6.8,3.6c2.8,2.1,5,4.7,6.6,7.6C924.3,96.7,925.2,99.6,925.2,102.5z M908.3,94.2   c0-1.7-0.6-3.1-1.8-4.2s-2.7-1.9-4.4-2.4s-3.3-0.8-4.8-0.8c-1.9,0-4.1,0.9-6.5,2.6s-4.8,3.9-7.3,6.5c-2.5,2.7-4.9,5.5-7.3,8.5   c-2.3,3-4.4,5.8-6.3,8.5c-1.9,2.7-3.3,4.8-4.2,6.4c4.4-2.1,8.8-4.3,13.2-6.6c4.5-2.3,8.9-4.4,13.3-6.5c1.7-0.7,3.4-1.5,5.2-2.2   s3.5-1.6,5.2-2.6c1.5-0.9,2.8-1.8,4-2.7C907.7,97.7,908.3,96.2,908.3,94.2z"></path>		<path d="M1104.8,162.4c0,2.9-1.4,5.2-4.2,6.9c-2.4,1.6-5.5,3-9.2,4.3s-7.6,2.4-11.7,3.4s-8.1,1.7-12,2.2s-7.3,0.8-10.1,0.8   c-7.6,0-14.7-0.6-21.6-1.8c-6.8-1.2-13.7-3.4-20.8-6.7c-2.3-1.1-4.6-2.2-6.8-3.4s-4.3-2.5-6.5-3.9c-2.1-1.4-4.2-2.8-6.3-4.2   s-4.2-2.8-6.3-4.2c-1-0.6-2.4-1.5-4.4-2.7s-3.4-1.8-4.4-1.8c-1.4,0-2.8,0.4-4.2,1.3c-1.4,0.9-2.6,1.9-3.5,3   c-0.2,0.3-0.5,0.8-0.8,1.4c-0.3,0.6-0.7,1.3-1.3,2.2c-0.4,0.9-0.9,1.8-1.3,2.7c-0.4,1-0.9,2-1.4,3c-0.9,1.8-1.7,3.5-2.6,5.1   c-0.9,1.6-1.6,2.4-2.2,2.4c-0.4,0-1.1-0.6-2.1-1.8s-1.9-2.4-2.9-3.8c-1.1-1.5-2-2.9-2.9-4.3c-0.9-1.4-1.4-2.3-1.8-2.7   c3.1-1.5,6.1-3.1,9.1-4.9c3-1.8,5.9-3.6,8.6-5.7c2-4.6,3.6-9.6,4.6-15c1.1-5.4,1.8-10.9,2.2-16.5s0.6-10.8,0.6-15.7l-21.9-0.2V96   h36.6c-0.5,10.2-2.2,20-4.9,29.2c-1.4,4.5-3.1,8.5-5.2,12c-2.1,3.5-4.6,7.1-7.6,10.9c0.4-0.2,0.9-0.4,1.4-0.6   c0.5-0.2,0.9-0.3,1.4-0.4c1.1-0.5,2.1-0.8,3.2-0.8c1.4,0,2.7,0.2,3.8,0.6c1.2,0.4,2.3,1,3.5,1.6c7.3,3.5,14.2,6.5,20.7,9.1   c6.4,2.6,12.8,4.7,19.2,6.3c6.3,1.7,13,2.9,19.9,3.7s14.4,1.2,22.5,1.4l1,0.2c4-0.1,8.1-0.3,12.1-0.6s8-0.7,12.1-1.1   c-2.6-1.1-3.8-2.8-3.8-5.3c0-1.6,0.6-3,1.8-4.3c1.2-1.3,2.6-1.9,4.3-1.9c1.6,0,3,0.7,4.2,2.2   C1104.2,159.4,1104.8,160.9,1104.8,162.4z M994.9,67.7c0,1-0.6,1.4-1.9,1.4c-0.1,0-1.4-0.5-3.9-1.4s-5.3-1.9-8.4-3   c-3.1-1.2-6.1-2.3-8.9-3.4c-2.9-1.1-4.7-1.8-5.6-2.1c1-1.7,1.9-3.4,3-4.9c1-1.6,1.9-3.2,2.8-4.9c0.4-0.6,0.8-1.3,1.2-2   s0.8-1.4,1.2-2c0.3-0.4,0.6-0.8,1-1.2c0.3-0.4,0.7-0.6,1.3-0.6c0.7,0,1.9,0.7,3.4,2.1c1.5,1.4,3.1,3.1,4.8,5.2   c1.7,2.1,3.3,4.3,4.9,6.5c1.5,2.3,2.8,4.3,3.8,6.1C994.4,65.5,994.9,66.9,994.9,67.7z M1103.5,140.8c0,1.5-0.7,2.8-2,4.1   c-1.3,1.2-2.8,1.8-4.4,1.8c-1.5,0-3.4-0.6-5.7-1.9c-2.3-1.3-4-2.3-5.2-3.2c-1.4-1-2.7-2-3.9-3.1c-1.2-1.1-2.5-2.3-3.8-3.4   c-9-8.5-16-17.6-20.8-27.4c-4.8-9.7-8.6-20.6-11.3-32.6c-0.1-0.3-0.2-0.7-0.2-1.1c-1.9,8.4-4.7,17-8.5,25.7   c-3.7,8.7-8.4,16.8-14,24.3c-5.6,7.5-12.2,13.5-19.9,18.2c-0.6,0.4-1.7,1-3.2,1.8s-2.7,1.2-3.5,1.2c-0.3,0-0.5-0.1-0.5-0.3   s0.1-0.5,0.4-0.8c0.3-0.3,0.5-0.6,0.6-0.8c1.6-1.4,3.1-2.9,4.5-4.5c8.8-10,15.7-21.3,20.5-33.8s8.1-25.4,9.8-38.6l13.3,4.8   c-0.5-3.4-1-6.8-1.5-10.1c-0.5-3.4-0.9-6.7-1.2-10l-29.4-0.2v-5.7h44.2c0.1,17.2,3.1,34,9,50.2s14.2,31,24.8,44.5   c0.4-1.2,1.2-2.3,2.5-3.4c1.2-1.1,2.5-1.7,3.9-1.7c1.6,0,2.9,0.6,3.8,1.9C1103,137.9,1103.5,139.3,1103.5,140.8z"></path>		<path d="M1257.9,116.6c0,8.6-1.7,16-5.2,22.2s-8.1,11.3-13.9,15.4c-5.8,4.1-12.2,7.5-19.3,10.1c-7.1,2.6-14.2,4.7-21.5,6.1   c-0.9,0.2-2.1,0.5-3.8,1c-1.7,0.4-3.4,0.8-5,1c-1.7,0.3-2.8,0.4-3.6,0.4c-0.7-0.1-1.2-0.4-1.3-0.8c-0.1-0.4,0.2-0.8,0.8-1.1   c0.2-0.1,0.8-0.3,1.8-0.6s2-0.5,3.1-0.8s1.8-0.4,2.1-0.4c2.6-0.6,4.9-1.4,7-2.4c7.2-3,14-6.8,20.2-11.6c6.2-4.7,11.2-10.3,15-16.8   s5.7-13.9,5.7-22.3c0-6.8-1.4-12.7-4.2-17.6c-2.8-4.9-6.8-8.7-11.8-11.3c-5.1-2.6-10.9-3.9-17.6-3.8c-3.3,5.7-6.5,11.6-9.6,17.5   s-5.8,12-8.1,18.3c0,1.9,0.4,3.8,1.2,5.5c0.8,1.8,1.9,3.3,3.3,4.7c0.5,0.4,1.1,0.9,1.6,1.3c0.5,0.4,1,0.9,1.4,1.4   c0.7,1.1,1.1,2.3,1.1,3.7c0,1.6-0.5,3-1.4,4.2s-2.3,1.8-4.1,1.8c-1.7,0-3.7-0.7-6.1-2.1c-2.3-1.4-4.3-2.6-5.7-3.5   c-1.2,1.9-2.6,4.2-4.4,6.9s-3.8,5.2-6,7.7c-2.2,2.4-4.6,4.5-7,6.1c-2.4,1.7-4.9,2.5-7.5,2.5c-1.6,0-2.9-0.4-3.9-1.2   s-1.9-1.9-2.6-3.3c-0.6-1.3-1.1-2.7-1.4-4.2s-0.7-2.9-1.3-4.3c-0.9-2.3-1.9-4-3.2-5c-1.3-1-2.4-2.1-3.4-3.4   c-1-1.2-1.5-3.3-1.5-6.1c0-4.2,1.2-8.4,3.6-12.7c2.4-4.3,5.3-8.4,8.8-12.1c3.5-3.8,6.7-6.9,9.8-9.3c-0.2-2.2-0.5-4.5-0.9-6.8   s-0.8-4.5-1.2-6.8c-0.4-2.4-1.2-4.7-2.3-6.6c-1.1-2-2.5-3.8-4.2-5.5c-0.7-0.9-2-2-3.8-3.4s-2.8-2.4-3.3-3c-0.4-0.5-0.4-1,0-1.3   c0.4-0.3,0.8-0.4,1.3-0.2c0.6,0.2,1.5,0.7,2.7,1.5s2.1,1.4,2.7,1.8c1.7,1,3.4,1.9,5.1,2.8s3.4,1.8,5.1,2.8c1.8,1.1,3.1,2.1,3.9,3   c0.8,1,1.5,2.3,2.2,4.2c0.6,1.7,1.1,3.5,1.5,5.4s0.8,3.8,1.2,5.6c4.4-2.7,8.7-4.9,13-6.6s9-3.2,14-4.2c1.1-2.8,2.2-6,3.4-9.7   c1.2-3.7,1.8-7,1.8-10c0-2.4-0.9-4-2.7-4.7c-1.8-0.7-3.7-1-5.6-0.9c-1,0-1.3-0.4-1-1.3c0.7-1.5,2.2-2.7,4.3-3.7   c2.1-1,4.4-1.6,6.7-2.1c2.3-0.4,4.2-0.6,5.6-0.6c1.7,0,3.6,0.5,5.7,1.4s3.9,2.1,5.3,3.6c1.5,1.5,2.2,3.2,2.2,5.1   c0,1-0.2,1.8-0.6,2.6s-0.8,1.6-1.4,2.3s-1.3,1.4-2,2s-1.4,1.3-2,2c-1.7,1.7-3.1,3.6-4.2,5.8c-1.1,2.2-2.4,4.3-3.8,6.3h5.3   c8.5,0,16.3,1.6,23.3,4.9c7,3.2,12.5,8.8,16.4,16.7C1256.5,105.4,1257.9,110.9,1257.9,116.6z M1171.2,129.6   c-2.4-3.7-4.4-7.7-6-11.9c-1.5-4.2-2.9-8.4-4.1-12.7c-3.3,4.4-6.3,8.9-8.9,13.6s-3.9,10-3.9,15.7c0,1.8,0.5,3.8,1.6,6   s2.7,3.3,4.9,3.3c2,0,4.1-0.9,6.2-2.6c2.1-1.7,4.1-3.7,5.8-5.9C1168.7,133,1170.1,131.1,1171.2,129.6z M1195.1,84.1   c-9.2,2.2-17.3,6.3-24.6,12.3c0.9,3.6,1.9,7.2,3.2,10.6c1.3,3.5,2.9,6.8,4.9,10c3.1-5.3,6.1-10.7,9-16.1   C1190.6,95.5,1193.1,89.9,1195.1,84.1z"></path>		<path d="M1422,65.9c0,4.8-2.4,7.1-7.3,6.9c-0.7,0-1.5-0.1-2.3-0.3c-0.8-0.2-1.6-0.4-2.3-0.5c-0.6-0.1-1.3-0.2-2-0.2   c-0.7-0.1-1.4-0.1-2.2-0.1c-4.3,0-8.6,0.3-13,0.9s-8.5,1.9-12.2,4.1c-3.1,1.7-5.8,4.3-8.1,7.7c-2.3,3.4-4.3,7.2-6,11.3   c-1.7,4.2-2.9,8.3-3.7,12.5c-0.8,4.2-1.2,8-1.2,11.3c0,8.4,1.1,15,3.2,19.8s5.6,8.2,10.5,10.1c4.9,2,11.5,3,19.8,3   c3.2,0,5.9,0.7,8,2.2c2.1,1.4,3.9,3.5,5.4,6.3c0.3,0.5,0.6,1.1,0.9,1.8c0.3,0.6,0.4,1.3,0.4,1.9c0,2.1-0.9,3.7-2.6,4.8   s-3.7,1.8-6,2.2s-4.2,0.6-5.8,0.6c-6.1,0-12.3-1-18.6-2.9c-6.3-1.9-11.8-4.9-16.4-9.1c-4.4-4-7.2-8.5-8.4-13.5   c-1.2-4.9-1.8-10.2-1.8-15.9c0-12,2.6-22.8,7.7-32.4c5.2-9.6,11.7-18.6,19.6-27.1c-8.6,2-16.8,4.8-24.6,8.4   c-7.8,3.6-15.6,7.4-23.5,11.6c-1,0.4-2,0.9-3,1.4c-1.1,0.5-2.2,0.7-3.4,0.7c-4.9,0-9-1.8-12.2-5.3s-4.9-7.7-4.9-12.5   c0-0.7,0.1-1.4,0.3-2.1c0.2-0.6,0.5-1.3,0.8-1.9l0.5-0.5c1.5,1.7,3.5,2.9,6.1,3.5s4.9,1,7,1c4.7,0,10.2-0.7,16.6-2s13-3,20-5   c6.9-2,13.5-4.2,19.9-6.4c6.3-2.2,11.7-4.2,16.2-5.9c1.8,0,4.3,0,7.4,0.1s6.3,0.4,9.6,1c3.2,0.6,6,1.6,8.2,3   C1420.9,61.4,1422,63.4,1422,65.9z"></path>		<path class="st4" d="M1599.6,145.1c0,2.3-0.8,4.4-2.5,6.1c-1.7,1.8-3.7,2.6-6.1,2.6c-1.7,0-3.7-0.7-6-2s-4.5-2.9-6.6-4.6   c-2.1-1.8-3.9-3.2-5.3-4.2c-3.8-3.3-8-7-12.5-11.3c-4.5-4.2-9-8.5-13.5-12.8s-8.8-8.4-12.9-12.2c-4-3.8-7.6-7-10.5-9.6   c-0.9-0.9-2-1.7-3.6-2.6c-1.5-0.9-2.9-1.3-4.1-1.3c-1.4,0-2.5,0.3-3.3,1c-0.8,0.6-1.6,1.4-2.5,2.2c-2,2-4.4,4.8-7,8.4   c-2.7,3.6-5.2,7.2-7.7,10.9c-2.4,3.7-4.4,6.9-5.9,9.4c-0.5,1-1.1,1.9-1.6,2.9c-0.5,1-1.2,1.9-2.1,2.7c-1.5,1.5-3.4,2.3-5.6,2.6   c-2,0.1-4.2-0.5-6.6-1.9s-4.5-3.1-6.3-5.1c-1.3-1.5-2.4-3.1-3.3-4.9s-1.6-3.5-2.2-5.2c-0.1-0.5,0-1,0.2-1.3c0.3-0.3,0.6-0.4,1-0.2   c1.3,0.4,2.6,0.8,4,1.2c1.4,0.4,2.8,0.6,4.2,0.6c2.4,0,4.4-0.4,5.8-1.1s3-1.9,4.7-3.5c3.8-3.7,7.7-7.8,11.7-12.4   c3.9-4.5,7.8-8.5,11.7-12.1c3.4-3.1,7.2-4.6,11.3-4.6c1.8,0,3.6,0.5,5.5,1.6s3.5,2.1,4.9,3.2c8.7,6.3,17.5,12.8,26.2,19.6   c8.7,6.8,17.9,12.9,27.5,18.4c1.5,0.9,2.9,1.7,4.2,2.6c1.3,0.9,2.7,1.8,4.1,2.7c1.3,0.9,2.6,1.8,4.1,2.8c1.4,1,2.6,2.2,3.4,3.4   c0.9,1.2,1.6,2.4,2.2,3.7C1599.4,142.3,1599.6,143.6,1599.6,145.1z M1564.4,73.1c0,1.4-0.4,2.6-1.3,3.5c-0.9,1-2.1,1.5-3.8,1.8   c-1.4,0.1-2.4-0.4-3-1.5s-1.2-2.2-1.6-3.3c-0.7-1.9-1.9-3.8-3.4-5.7c-1.5-1.9-3-3.6-4.6-4.9c-0.7-0.7-1.5-1.4-2.3-1.9   s-1.6-1-2.5-1.4c-0.1-0.1-0.2-0.3-0.2-0.5s0.2-0.3,0.5-0.3c4.9,0,9,0.8,12.2,2.4c3.2,1.6,5.7,3.5,7.4,5.7   C1563.5,69.1,1564.4,71.2,1564.4,73.1z M1581.9,63.2c0,1.3-0.5,2.6-1.4,3.8c-0.9,1.3-2.2,1.9-3.9,1.9c-1.1,0-1.9-0.4-2.5-1.1   s-1.1-1.5-1.7-2.2c-1.4-2.3-2.9-4.4-4.6-6.1c-1.7-1.7-3.5-3.4-5.7-4.9c-0.7-0.5-1.5-1-2.3-1.5s-1.6-0.9-2.3-1.4   c-0.6-0.4-0.6-0.7,0.2-1c0.4,0,0.9,0,1.3,0s0.8,0,1.3,0c1.9,0,4.1,0.2,6.5,0.6c2.4,0.4,4.8,1.1,7.1,2.1c2.3,1,4.2,2.2,5.7,3.8   C1581.2,58.9,1581.9,60.9,1581.9,63.2z"></path>		<path class="st4" d="M1744,116.4c0,4.5-1,7.4-3,8.7c-2,1.3-4.4,2-7.2,2c-1.5,0-2.8-0.7-4-2.1c-2.9-3.3-5.7-6.3-8.4-8.9   c-2.7-2.7-5.9-5.4-9.5-8.3c-3-2.4-6.1-4.6-9.3-6.3c-3.2-1.8-7-3.1-11.3-4.1c0.2,10.8,0.6,21.9,1.2,33.4s0.9,22.6,0.9,33.4   c0,1.6-0.3,3.5-1,5.6s-1.7,4-2.9,5.5c-1.2,1.5-2.7,2.3-4.4,2.3c-1,0-2.1-0.5-3.3-1.6c-1.2-1.1-2.3-2.3-3.3-3.8   c-1-1.4-1.7-2.7-2.1-3.8c-0.5-1.5-0.9-3.1-1.2-4.9c-0.3-1.8-0.4-3.6-0.4-5.3c0-3.4,0.3-6.6,1-9.7c0.7-3.1,1.2-6.3,1.5-9.6   c0.3-4.3,0.6-8.2,0.8-11.7c0.2-3.6,0.4-7.2,0.6-10.8c0.2-3.6,0.2-7.7,0.2-12.1c0.1-3.2,0.2-6.8,0.2-10.7c0-3.9,0-7.8,0-11.7   c0-3.9,0-7.3,0-10.3c0-2.6-0.2-5.2-0.5-8c-0.3-2.8-1.1-5.3-2.3-7.7c-1.2-2.3-3.2-4-6-5.1c0.7-1.4,1.8-2.6,3.2-3.5   c1.4-1,2.6-1.4,3.5-1.4c2.1,0,4.5,0.5,7.2,1.5s5.1,2.3,7.3,3.8c1.8,1.3,3.3,2.7,4.4,4.2s1.7,3.4,1.7,5.5c0,1-0.1,1.7-0.3,2.2   c-0.2,0.5-0.5,1.2-1,2.1c-2.4,5.2-3.9,10.1-4.3,14.6s-0.7,9.7-0.8,15.6c1.7-0.1,4.1-0.2,7.3-0.2c3.1,0,5.6,0.1,7.3,0.2   c4.8,0.1,9.6,0.7,14.4,1.8c4.8,1.1,9.3,2.9,13.5,5.3c2.4,1.4,4.8,3.3,6.9,5.7C1742.9,110.6,1744,113.3,1744,116.4z"></path>		<path class="st4" d="M1926.4,93.4c0,2-0.7,3.2-2.1,3.6s-2.8,0.5-4.3,0.2c-1.8-0.3-4.1-0.7-6.9-1.2s-5.1-0.8-7-0.9   c-1.4-0.1-2.9-0.2-4.5-0.4c-1.6-0.2-3.2-0.2-4.8-0.2c-3,0-5.9,0.1-8.7,0.2c-2.8,0.1-6.1,0.3-9.8,0.5c-0.3,8.8-1.2,17.2-2.6,25.1   s-3.9,15.3-7.7,22c-3.7,6.8-9.4,13-16.9,18.8c-2,1.4-4.2,2.8-6.4,4.2c-2.2,1.4-4.6,2.7-7,3.9c-1.5,0.7-3.1,1.5-4.9,2.2   s-3.4,1.4-5,1.9s-3.1,1-4.4,1.3s-2.7,0.6-4.2,0.8c-0.3,0-0.6-0.1-0.7-0.3c-0.2-0.2-0.1-0.4,0.1-0.5c1.1-0.4,2.1-0.8,3.1-1.2   s2.1-0.9,3.3-1.5c1.9-1,3.7-2,5.4-3.2c1.7-1.2,3.4-2.3,4.9-3.5c10.3-8.1,17.7-18,22.2-29.6c4.5-11.7,6.7-24.4,6.7-38.2   c-6.9,1.1-13.8,2.4-20.6,4.2c-6.8,1.7-13.1,3.9-18.8,6.5c-0.3,0.1-0.7,0.2-1,0.4c-0.4,0.2-0.8,0.3-1.2,0.6c-0.3,0.1-0.6,0.2-1,0.3   c-0.3,0.1-0.6,0.2-0.8,0.2c-1.4,0-3-0.5-4.7-1.5c-1.8-1-3.3-2.3-4.7-3.8c-1.4-1.5-2.4-3.1-3-4.5c-1-2.4-1.4-4.9-1.4-7.3   c0-0.2,0.1-0.3,0.3-0.2c0.9,0.4,1.8,0.9,2.9,1.4s2.1,0.8,3.2,1c1.3,0.2,2.6,0.4,4.1,0.5c1.4,0.1,2.7,0.2,3.9,0.2   c2.4,0,5.7-0.2,9.8-0.6c4.1-0.4,8.4-0.9,12.9-1.4s8.6-1,12.4-1.5c3.7-0.5,6.4-0.8,8-0.9v-7.5c0-2.6,0-5.1-0.1-7.7   s-0.2-5.1-0.4-7.7c-0.3-3.7-1-6.8-1.9-9.3c-1-2.4-3.3-4.5-7-6.2c-0.1,0-0.2-0.1-0.2-0.2c0-0.1,0.1-0.2,0.2-0.2   c1.4-1,3.1-1.7,5.1-2.3s3.7-0.9,4.9-0.9c1.2,0,2.7,0.3,4.6,1s3.9,1.6,5.8,2.8c2,1.2,3.6,2.5,5,3.9s2.1,3,2.1,4.6   c0,1.3-0.4,2.4-1.1,3.4s-1.5,1.9-2.4,2.9c-0.1,2.8-0.2,6.1-0.3,9.9c-0.1,3.8-0.3,7.6-0.5,11.2c1.8-0.3,3.7-0.6,5.7-1   c2-0.3,4-0.6,6.1-1c2-0.4,3.9-0.8,5.7-1.2c1.8-0.4,3.2-0.8,4.2-1.2c0.3-0.2,0.8-0.5,1.5-0.9s1.2-0.8,1.7-1.2   c0.4-0.3,0.7-0.5,1-0.6c0.2-0.1,0.4-0.1,0.5-0.1c2.8,0.1,5.5,0.6,8.3,1.4c2.8,0.9,5.3,2,7.7,3.4c1.2,0.7,2.4,1.8,3.8,3   C1925.8,90.5,1926.4,91.9,1926.4,93.4z"></path>		<path class="st4" d="M2093.6,147.8c0,3-0.6,5.9-1.7,8.6c-1.1,2.8-3.4,4.3-6.8,4.6c-3.1,0.2-5.3-0.7-6.6-2.8s-2.3-4.4-3-7.1   c-0.7-3.4-1.8-6.7-3.1-10c-1.3-3.2-2.7-6.3-4.2-9c-4.1,2.9-8.5,5.4-13.1,7.6c-4.6,2.2-10.4,4.4-17.4,6.6   c-4.5,1.4-9.3,2.8-14.6,4.2c-5.3,1.4-10.2,2.7-14.8,3.9c-4.6,1.2-8.2,2.1-10.6,2.7c-0.3,0.1-1,0.4-1.9,0.8c-1,0.4-1.9,0.8-3,1.2   c-1,0.4-1.7,0.6-2,0.6c-1.2,0.1-2.5-0.1-4-0.6s-2.8-1.1-4-1.8c-2.1-1.3-3.9-2.6-5.3-3.9c-1.4-1.3-2.1-3.2-2.1-5.5   c0-1.2,0.2-2.6,0.5-4.2c0.3-1.6,0.7-2.9,1.3-4c0.3-0.6,0.6-0.6,0.8,0c0.9,1.6,2.1,2.6,3.8,3c1.7,0.4,3.5,0.6,5.3,0.6   c3.2,0,6.5-0.3,9.9-0.8c1.6-2.7,3.4-6.1,5.3-10.2c2-4.2,4-8.6,6.1-13.5c2.1-4.8,4-9.7,5.9-14.7c1.9-4.9,3.5-9.6,4.9-13.9   s2.3-8,2.7-10.9c0.2-1.6,0.5-3.2,0.7-4.9c0.3-1.6,0.4-3.3,0.4-5c0-2.6-0.6-4.6-1.8-6.1c-1.2-1.5-3-2.8-5.2-3.9   c0.1-0.5,0.5-0.9,1.3-1.1c1.5-0.9,3.2-1.5,5.1-1.9s3.4-0.6,4.5-0.6c2.3,0,4.8,0.9,7.4,2.7s4.8,4,6.7,6.5c1.9,2.6,2.8,5,2.8,7.3   c0,1.1-0.3,1.8-0.9,2.2c-0.6,0.4-1.1,1.1-1.7,1.9c-0.4,0.6-0.9,1.4-1.5,2.4s-1.1,1.8-1.5,2.6c-1.4,2.9-2.9,6-4.5,9.3   s-3.1,6.3-4.6,9.1c-4,7.1-8.1,14.2-12.3,21.3c-4.2,7.1-8.6,13.9-13.2,20.5c10.1-1.3,20.7-3.2,31.8-5.7c11.1-2.6,21.4-5.1,31-7.7   c-2.3-4-4.8-7.8-7.3-11.3s-5.5-6.9-8.9-10.2c-0.3-0.3-0.3-0.8-0.1-1.4c0.3-0.6,0.9-0.7,2-0.3c4,1.3,8.5,3.3,13.3,6.1   c4.8,2.8,8.9,6,12.3,9.5c1.9,1.9,4.1,4.5,6.6,7.7c2.5,3.2,4.7,6.6,6.5,10.1C2092.6,141.9,2093.6,145.1,2093.6,147.8z"></path>		<path d="M2221,115.3c0,3.7-0.4,7.9-1.1,12.5c-0.7,4.6-1.9,9.2-3.4,13.8s-3.6,8.9-6.1,12.7s-5.5,7-9.1,9.4s-7.7,3.7-12.4,3.8   c-2.8,0.1-5-0.7-6.7-2.6c-1.7-1.8-2.2-4.2-1.4-7c-0.5-1.8-1.6-4-3.2-6.6c-1.6-2.6-3.3-5.2-5.2-7.7c-1.9-2.6-3.4-4.5-4.7-5.9   c-0.6,1.3-1.7,3.5-3.1,6.5c-1.4,3.1-3,6.4-4.8,9.9s-3.4,6.7-4.9,9.4c-1.5,2.8-2.7,4.6-3.4,5.4c-0.5,0.6-1.2,1.2-2,1.7   s-1.7,0.7-2.6,0.7c-2.3,0-4.2-0.7-5.6-2.1c-1.4-1.4-2.3-3.1-2.9-5.2c-0.5-2.1-0.8-4.1-0.8-6c0-2.1,0.8-4,2.5-5.7   c1.6-1.6,3.2-3.2,4.6-4.5c4.5-4.5,8.7-9.8,12.7-16c4-6.2,7.6-12.6,10.9-19.2c3.2-6.6,6-12.8,8.2-18.7c-1.7,0.7-3.5,1.5-5.3,2.3   s-3.6,1.6-5.4,2.5c-1.7,0.9-3.5,1.8-5.3,2.9c-1.9,1.1-3.6,2.2-5.2,3.4c-1.1,0.6-2.2,1-3.4,1c-1.7,0-3.4-0.8-5.2-2.4   s-3.2-3.5-4.3-5.6s-1.7-4-1.7-5.6c0-1.2,0.3-2.4,0.9-3.7c0.6-1.3,1.2-2.3,1.8-3.2c0.2-0.5,0.4-0.7,0.6-0.6   c0.2,0.1,0.4,0.3,0.5,0.6c0.5,3.9,2.8,6,6.7,6.2c4,0.1,8.6-0.4,13.8-1.6s9.7-2.3,13.5-3.5c0.7-2.2,1.5-4.8,2.3-7.7   s1.5-5.8,2.1-8.8s0.9-5.6,0.9-7.8c0-3.1-0.9-5.5-2.6-7.1c-1.7-1.6-3.9-2.9-6.7-3.8c0.6-1.6,2-2.7,4.2-3.4c2.1-0.6,3.9-1,5.4-1   c1.9,0,4.3,0.7,7,2.2c2.8,1.4,5.2,3.2,7.3,5.3s3.2,4.1,3.2,6.1c0.1,1.7-0.2,2.8-1,3.4c-0.7,0.5-1.6,1.2-2.6,2.1   c-0.3,0.2-0.9,1.2-1.6,2.9c-0.7,1.7-1.6,3.7-2.5,5.9c-0.9,2.2-1.7,4.3-2.5,6.2c-0.7,1.9-1.3,3.2-1.6,4c1.9-0.4,3.8-0.8,5.7-1.2   c1.9-0.4,3.8-0.6,5.7-0.6c5,0,9,1.7,12.1,5c3.1,3.4,5.2,7.3,6.2,11.7c0.6,2.4,1,4.9,1.1,7.5C2220.9,110.3,2221,112.8,2221,115.3z    M2207.5,107.6c0-4.3-0.6-8.1-1.9-11.5c-1.3-3.4-3.3-5.7-6.1-6.9c-2.8-1.2-6.7-0.7-11.6,1.7c-2.9,7.5-5.9,14.8-9.2,22.1   c-3.2,7.3-6.5,14.6-9.7,21.8c1.1,1.6,2.9,3.5,5.4,5.7c2.6,2.2,5.3,4.1,8.1,5.7c2.9,1.7,5.3,2.5,7.2,2.5c3-0.1,5.5-1.2,7.7-3.4   c2.1-2.1,3.9-4.9,5.2-8.2c1.3-3.4,2.3-6.9,3-10.5c0.7-3.7,1.2-7.2,1.4-10.6C2207.4,112.5,2207.5,109.7,2207.5,107.6z M2272,102.7   c0.2,2.6,0,5.1-0.6,7.5s-1.7,4.5-3.3,6.1s-3.9,2.4-7,2.4c-1.5,0-2.8-0.7-4-2.2c-1.2-1.4-1.9-2.8-2.2-4.2c-0.1-0.4-0.2-0.9-0.2-1.3   s0-0.9,0-1.3c0-1.3-0.1-2.6-0.2-3.8s-0.3-2.5-0.6-3.7c-1.1-6-3.4-10.7-7-14.2s-8.5-5.6-14.7-6.4c-1.2-0.2-2.4-0.3-3.6-0.4   c-1.2-0.1-2.4,0-3.6,0.1c-0.9,0.2-1.6,0.3-2.2,0.3c-0.1,0-0.2-0.1-0.2-0.2c-0.1-0.1,0-0.2,0.1-0.3c1.9-1.5,4.7-2.6,8.2-3.4   c3.6-0.8,6.6-1.2,9-1.2c5.2,0,10.2,1,14.9,3s8.7,5,11.9,8.9C2270,92.3,2271.7,97,2272,102.7z"></path>		<path d="M2419.2,135.6c0,5.4-1.3,10.3-3.8,14.5c-2.6,4.3-5.9,7.9-10,10.9s-8.5,5.5-13.3,7.4c-6.5,2.7-13.4,4.6-20.6,5.7   c-7.2,1.2-14.4,1.9-21.4,2.1c-1.5,0.1-3,0.2-4.6,0.3s-3.1,0.2-4.6,0.2c-0.7,0-1.2-0.3-1.4-1c-0.2-0.6,0.3-1,1.4-1.1   c0.4-0.1,1.5-0.3,3.1-0.5s3.3-0.5,5-0.7c1.7-0.3,2.9-0.5,3.5-0.6c4.4-0.9,8.7-1.9,13.1-3.1c4.4-1.2,8.6-2.7,12.6-4.6   c4.6-2.1,8.7-4.6,12.5-7.5c3.7-2.9,6.7-6.3,8.9-10.4c2.2-4,3.4-8.7,3.4-14c0-4.9-2.1-8.8-6.2-11.7c-3.3-2.3-7.1-3.6-11.3-3.8   c-4.2-0.2-8.4,0.4-12.6,1.8c-4.2,1.4-8.1,3.3-11.7,5.7c-3.6,2.4-6.5,5.1-8.8,8c-1.7,2.1-2.7,4.2-3,6.2s-1,4.2-1.9,6.4   c-1.1,2.6-3,3.8-5.7,3.8c-2.3,0-4.2-1-5.6-2.9c-1.4-1.9-2.4-4.2-3-6.7c-0.6-2.6-1-4.7-1-6.5c0-6.2,0.5-12.3,1.5-18.4   s2.4-12.2,4.2-18.1c0.3-1.1,0.8-2.6,1.5-4.7s1.4-4.1,2.2-6.1c0.7-2,1.4-3.3,1.9-4.1c0.2-0.3,0.5-0.4,0.8-0.3s0.5,0.4,0.5,0.8   c-0.2,1.5-0.3,3.3-0.3,5.4s0.5,4,1.4,5.6c0.6,1.1,1.2,1.7,1.6,1.8c0.4,0.1,0.6,1,0.6,2.6c0,0.7-0.1,1.3-0.2,1.6   c-1,3.7-2.1,7.4-3.3,10.9c-1.2,3.6-1.8,7.3-1.8,11.3c0,1.4,0.3,2.8,1,4.4c0.7,1.5,1.9,2.3,3.6,2.3c0.9,0,2.3-0.6,4.3-1.9   s4.1-2.7,6.1-4.2c2.1-1.5,3.6-2.6,4.7-3.1c4-2.3,8.6-4.5,13.7-6.5c5.1-2,10.1-3,14.8-3c8.2,0,14.9,2.1,20.2,6.3   C2416.6,120.4,2419.2,126.8,2419.2,135.6z M2387.8,66.6c0,2-0.7,3.8-2,5.4s-3.1,2.4-5.2,2.4c-1,0-1.9-0.1-2.9-0.2   c-1-0.2-1.9-0.3-2.9-0.6c-2.1-0.5-4.3-1-6.4-1.4c-2.1-0.4-4.3-0.6-6.5-0.6c-1.5,0-3,0.2-4.6,0.6c-1.5,0.4-3,0.8-4.4,1.4   c-0.4,0.1-0.9,0.2-1.4,0.4c-0.5,0.2-1,0.3-1.5,0.6c-0.3,0.1-0.6,0.1-0.8,0s-0.2-0.4,0-0.8c0.5-0.7,1.5-1.5,2.9-2.4   s2.8-1.6,4.3-2.4c1.5-0.7,2.6-1.3,3.4-1.6c-3.1-1.8-5.9-4.3-8.5-7.6c-2.6-3.2-3.9-6.8-3.9-10.8c0-0.2,0-0.5,0-0.9s0.1-0.7,0.2-1   c0.2-0.3,0.5-0.3,0.8,0c1.4,1.3,2.6,2.3,3.8,3c1.1,0.7,2.6,1.5,4.4,2.2c2.9,1.1,5.8,1.8,8.9,2.1s6,0.5,9,0.5c1.9,0,3.9,0.5,6,1.6   s3.8,2.5,5.3,4.2C2387.1,62.5,2387.8,64.5,2387.8,66.6z"></path>	</g></g></svg>